<svg xmlns="http://www.w3.org/2000/svg" width="264.952" height="72.602" viewBox="0 0 264.952 72.602"><g id="sunyaek_logo" transform="translate(-140.741 -277)"><g id="Group_5" data-name="Group 5" transform="translate(-6.948 -8.667)"><g id="Group_1" data-name="Group 1" transform="translate(147.69 285.667)"><path id="Path_1" data-name="Path 1" d="M452.88,379.114a14.919,14.919,0,0,1-7.752-1.981,13.324,13.324,0,0,1-5.189-5.625,18.55,18.55,0,0,1-1.836-8.443V342.227a18.55,18.55,0,0,1,1.836-8.443,13.35,13.35,0,0,1,5.189-5.625,16.165,16.165,0,0,1,15.508,0,13.369,13.369,0,0,1,5.185,5.625c.2.4.391.823.559,1.249v-.213l7.688-7.284a22.031,22.031,0,0,0-8.075-7.938,28.048,28.048,0,0,0-26.223,0,22.215,22.215,0,0,0-8.783,9.2,29.309,29.309,0,0,0-3.108,13.773v20.157a29.3,29.3,0,0,0,3.108,13.772,22.213,22.213,0,0,0,8.783,9.2,28.046,28.046,0,0,0,26.223,0,21.958,21.958,0,0,0,7.2-6.579Z" transform="translate(-427.879 -316.345)" fill="#009245"></path></g><path id="Path_2" data-name="Path 2" d="M570.792,401.083V361.831l-10.224,9.286v29.966h-4.408v9.769H575.2v-9.769Z" transform="translate(-374.411 -64.087)" fill="#0071bc"></path></g><g id="Group_2" data-name="Group 2" transform="translate(216.307 291)"><path id="Path_3" data-name="Path 3" d="M301.143,682.94a20.462,20.462,0,0,1-4.393-1.444,16.84,16.84,0,0,1-3.677-2.291l2.984-5.31a14.445,14.445,0,0,0,4.558,2.5,16.343,16.343,0,0,0,5.309.881,9.348,9.348,0,0,0,4.887-1.069,3.36,3.36,0,0,0,1.739-3.019v-.024a2.971,2.971,0,0,0-.776-2.161,4.612,4.612,0,0,0-2.02-1.175,24.608,24.608,0,0,0-3.2-.681.422.422,0,0,0-.129-.024.4.4,0,0,1-.13-.024l-.517-.07a31.743,31.743,0,0,1-5.685-1.351,8.371,8.371,0,0,1-3.83-2.843,9.239,9.239,0,0,1-1.574-5.768v-.023a10.408,10.408,0,0,1,1.48-5.662,9.342,9.342,0,0,1,4.3-3.583,16.955,16.955,0,0,1,6.813-1.233,17.354,17.354,0,0,1,3.747.423,20.348,20.348,0,0,1,3.747,1.222,20.944,20.944,0,0,1,3.477,1.927l-2.725,5.451a17.3,17.3,0,0,0-4.124-2.115,12.47,12.47,0,0,0-4.123-.752,8.94,8.94,0,0,0-4.582.975,3.041,3.041,0,0,0-1.621,2.737v.024a3.186,3.186,0,0,0,.846,2.338,5.037,5.037,0,0,0,2.091,1.257,33.014,33.014,0,0,0,3.5.846,1.6,1.6,0,0,0,.188.036,1.649,1.649,0,0,1,.188.035c.094.016.184.036.271.059a2.646,2.646,0,0,0,.27.059,28.575,28.575,0,0,1,5.415,1.539,8.43,8.43,0,0,1,3.63,2.913,9.174,9.174,0,0,1,1.457,5.486v.048a9.96,9.96,0,0,1-1.527,5.591,9.546,9.546,0,0,1-4.452,3.548,18.235,18.235,0,0,1-7.036,1.222A23.057,23.057,0,0,1,301.143,682.94Z" transform="translate(-293.073 -648.569)" fill="#009245"></path><path id="Path_4" data-name="Path 4" d="M375.23,687.913a3.649,3.649,0,0,0,1,2.737,3.848,3.848,0,0,0,2.808.975,3.717,3.717,0,0,0,2.784-1,3.92,3.92,0,0,0,.975-2.855l.329,5.333a7.576,7.576,0,0,1-2.267,3.36,5.727,5.727,0,0,1-3.865,1.363,7.5,7.5,0,0,1-6.061-2.526q-2.138-2.525-2.138-7.153v-15.06h6.437Zm7.565-14.825h6.414v24.387H382.8Z" transform="translate(-337.522 -662.962)" fill="#009245"></path><path id="Path_5" data-name="Path 5" d="M433.589,672.587h6.437v24.387h-6.437Zm14.1,9.609a3.674,3.674,0,0,0-1.022-2.772,4.008,4.008,0,0,0-2.9-.987,3.682,3.682,0,0,0-2.76,1,3.851,3.851,0,0,0-.975,2.807l-.493-5.4a9.132,9.132,0,0,1,2.643-3.454,6.273,6.273,0,0,1,3.865-1.151,7.261,7.261,0,0,1,5.967,2.6q2.114,2.6,2.114,7.342v14.8h-6.437Z" transform="translate(-375.558 -662.461)" fill="#009245"></path><path id="Path_6" data-name="Path 6" d="M490.706,673.088h6.061l8.2,21.192-4.065,5.193Zm22.531,0-10.854,30.1a7.783,7.783,0,0,1-1.515,2.643,5.091,5.091,0,0,1-2.232,1.4,10.922,10.922,0,0,1-3.278.423h-1.433V701.4h1.433a3.069,3.069,0,0,0,1.727-.458,2.787,2.787,0,0,0,1.045-1.493l9.046-26.36Z" transform="translate(-409.087 -662.962)" fill="#009245"></path><path id="Path_7" data-name="Path 7" d="M552.32,695.459q-1.938-1.868-1.938-5.674a6.659,6.659,0,0,1,2.173-5.427q2.173-1.809,6.52-1.809h6.109l.329,4.91H559.1a3.482,3.482,0,0,0-2.185.576,2.093,2.093,0,0,0-.729,1.75,1.947,1.947,0,0,0,.917,1.774,5.3,5.3,0,0,0,2.772.576,9.523,9.523,0,0,0,3.841-.588,1.927,1.927,0,0,0,1.257-1.833l.493,3.548a3.327,3.327,0,0,1-1.21,2.232,6.981,6.981,0,0,1-2.678,1.374,12.349,12.349,0,0,1-3.4.458Q554.258,697.327,552.32,695.459Zm12.652-13.944a3.169,3.169,0,0,0-1.128-2.608,4.949,4.949,0,0,0-3.2-.916,8.515,8.515,0,0,0-2.7.446,7.974,7.974,0,0,0-2.373,1.245l-3.994-3.924a9.607,9.607,0,0,1,3.853-2.6,14.587,14.587,0,0,1,5.309-.928,12.647,12.647,0,0,1,5.451,1.069,7.676,7.676,0,0,1,3.442,3.1,9.56,9.56,0,0,1,1.187,4.9v15.671h-5.85Z" transform="translate(-444.118 -662.461)" fill="#009245"></path><path id="Path_8" data-name="Path 8" d="M616.374,649.422h6.437v34.16h-6.437Zm2.326,0h20.557v6.2H618.7Zm0,14.1h17.973v6.2H618.7Zm0,13.861h20.557v6.2H618.7Z" transform="translate(-482.857 -649.07)" fill="#0071bc"></path><path id="Path_9" data-name="Path 9" d="M686.006,649.422h6.437v34.16h-6.437Zm3.877,20.816,13.7-20.816h8.105l-20.98,29.18Zm5.685-3.947,5.545-3.5,12.005,20.792h-7.635Z" transform="translate(-523.732 -649.07)" fill="#0071bc"></path></g></g></svg>